<?xml version="1.0" encoding="UTF-8" standalone="no"?>
<svg
   version="1.1"
   id="Layer_1"
   x="0px"
   y="0px"
   width="492.12958"
   viewBox="0 0 492.12958 521.3761"
   enable-background="new 0 0 688 688"
   xml:space="preserve"
   sodipodi:docname="icon_purple.svg"
   height="521.3761"
   inkscape:export-filename="icon_white.svg"
   inkscape:export-xdpi="96"
   inkscape:export-ydpi="96"
   inkscape:version="1.4 (86a8ad7, 2024-10-11)"
   xmlns:inkscape="http://www.inkscape.org/namespaces/inkscape"
   xmlns:sodipodi="http://sodipodi.sourceforge.net/DTD/sodipodi-0.dtd"
   xmlns="http://www.w3.org/2000/svg"
   xmlns:svg="http://www.w3.org/2000/svg"><defs
   id="defs12" /><sodipodi:namedview
   id="namedview12"
   pagecolor="#ffffff"
   bordercolor="#000000"
   borderopacity="0.25"
   inkscape:showpageshadow="2"
   inkscape:pageopacity="0.0"
   inkscape:pagecheckerboard="0"
   inkscape:deskcolor="#d1d1d1"
   inkscape:export-bgcolor="#ffffff00"
   inkscape:zoom="1.184593"
   inkscape:cx="251.98528"
   inkscape:cy="197.95829"
   inkscape:window-width="1920"
   inkscape:window-height="1017"
   inkscape:window-x="1912"
   inkscape:window-y="78"
   inkscape:window-maximized="1"
   inkscape:current-layer="Layer_1"><inkscape:page
     x="0"
     y="0"
     width="492.12958"
     height="521.3761"
     id="page2"
     margin="0"
     bleed="0" /></sodipodi:namedview>



<path
   id="path4"
   d="M 338.47656,0.01171875 C 333.78982,-0.075791 329.03465,0.36469325 324.29297,1.3828125 287.50891,9.2809795 264.31095,50.34551 284.4668,88.208984 c 2.26517,4.25519 1.19168,5.73753 -2.66016,7.28711 -19.11511,7.690006 -33.01368,20.709166 -41.23633,39.843746 -1.81375,4.22075 -2.20761,7.39759 0.84375,10.88672 1.49845,1.71342 2.02008,3.57093 0.63867,5.91602 -2.11813,3.59569 -5.3884,2.71537 -8.4375,2.63867 -3.03876,-0.0765 -2.84555,-2.80891 -3.39453,-4.77148 -0.57925,-2.07064 -0.70834,-4.2817 -1.40625,-6.30274 -7.93429,-22.97638 -22.54678,-39.74428 -45.48828,-48.744139 -2.28588,-0.89675 -4.70331,-1.702715 -6.23828,-4.208985 0.36908,-0.6766 0.7308,-1.391565 1.13867,-2.078125 6.42749,-10.81864 9.23877,-22.574423 7.53711,-34.980469 C 181.28412,21.037121 150.59226,-3.2587772 117.25977,0.66796875 78.893651,5.1876948 52.925114,46.012299 71.052734,85.455078 c 2.9993,6.52594 3.264245,6.407761 -3.478515,8.931641 -1.40332,0.52528 -2.842453,0.960146 -4.220703,1.542969 -16.58716,7.014322 -31.206592,16.655212 -40.982422,32.212892 -5.16432,8.21877 -7.571825,17.44635 -8.271485,27.78125 9.02312,-1.85501 17.193017,-4.26572 25.691407,-4.80469 1.9277,-0.12227 2.55445,-1.88496 3.25,-3.43359 2.33966,-5.20935 5.629931,-9.64158 9.613281,-13.83399 11.25113,-11.84159 26.481515,-15.39819 40.953125,-20.61718 1.27791,-0.4609 2.209165,0.42831 3.166016,1.07812 6.013642,4.08397 12.497702,6.95559 19.816402,7.64648 13.0153,1.22865 25.66938,0.79644 36.41407,-8.1289 0.96192,-0.79904 1.83389,-1.27269 3.14062,-0.67578 8.31888,3.79998 17.3519,5.94701 25.30664,10.54297 8.86738,5.12322 15.89001,12.1861 19.88281,21.7539 3.09704,7.42143 1.52537,9.57631 -6.3789,9.57031 -37.66476,-0.0268 -75.33338,0.17647 -112.994142,-0.23242 -16.84236,-0.18283 -32.786836,2.74135 -47.884766,10.09766 -13.39066,6.52443 -24.1399258,15.52658 -27.1660158,31.08984 -0.95077,4.88989 -1.3881937,9.87656 -1.3085937,14.89844 0.3354,21.15222 0.6038894,42.3063 0.9121094,63.45898 0.0095,0.65222 0.1333718,1.34194 1.2949219,1.42774 3.9594892,-5.96255 9.1887242,-11.08073 15.9277342,-13.63477 5.8772,-2.22745 7.178781,-6.10413 7.175781,-11.47461 -0.0059,-9.1658 0.05242,-18.33367 0.201172,-27.49804 0.02726,-1.67913 -0.804247,-3.66947 1.007813,-5.02539 13.2554,6.06048 20.15832,7.43516 34.80664,7.41406 60.161086,-0.0865 120.323766,-0.26751 180.484376,-0.11328 43.16278,0.11066 86.31405,-0.40659 129.46484,-1.21094 13.42572,-0.25024 25.89368,2.61075 36.71094,10.70117 12.61114,9.43204 17.87506,22.96195 20.63281,37.44336 -1.70044,1.65073 -3.09808,1.38967 -4.39648,1.38867 -29.49793,-0.0269 -58.99866,0.16894 -88.49219,-0.21289 -17.09259,-0.22126 -32.98831,3.50565 -46.38281,14.05664 -18.42756,14.51563 -26.89786,34.09168 -26.56641,57.63282 0.42642,30.28558 20.48023,56.44861 49.75781,64.32226 11.56543,3.11033 23.44571,2.74038 35.24219,2.73438 24.82785,-0.013 49.65576,-0.28519 74.48242,-0.57227 4.23596,-0.049 5.9911,1.37048 5.79688,5.83008 -0.27545,6.32504 -0.51178,12.63913 -1.07227,18.95312 -2.93835,33.09815 -28.82272,57.20365 -61.94531,57.27735 -50.164,0.1117 -100.32798,0.052 -150.49219,0.0645 -41.83014,0.0103 -83.66446,0.3384 -125.490231,-0.084 -27.50613,-0.27728 -53.945221,-16.10403 -60.519531,-43.77539 -0.5907,-2.48629 -2.202092,-3.93229 -4.382812,-5.09766 -7.13306,-3.81186 -13.339717,-8.75528 -18.285157,-15.23438 -1.5399181,-2.01755 -3.373924,-3.81078 -5.458984,-6.13671 -1.69964,11.46546 -0.4753187,27.8287 2.5507812,37.00195 11.3369398,34.36673 45.0326578,58.8977 81.2421878,60.13672 21.341966,0.7302 42.637156,0.0541 63.957026,-0.0391 53.82969,-0.23546 107.66242,-0.0761 161.99219,-0.0762 5.9932,0.10498 11.48676,0.31603 16.98047,0.29492 20.10523,-0.077 40.35269,2.3653 60.2207,-2.48632 34.14124,-8.33704 57.27448,-28.15678 64.64258,-63.63868 2.54786,-12.2694 2.15387,-24.85799 2.39258,-37.33593 0.0697,-3.64291 1.26397,-5.13892 4.97656,-4.94727 6.68908,0.34531 13.28065,-0.13474 19.68555,-2.51172 4.50037,-1.67017 6.71381,-4.37087 6.4082,-9.35156 -1.46011,-23.79669 0.79646,-47.59979 0.0293,-71.40234 -0.0643,-1.99496 -0.0577,-4.01221 0.16211,-5.99219 1.47675,-13.2984 0.61428,-26.63748 0.70898,-39.95703 0.0363,-5.1084 -2.3865,-8.47348 -7.66796,-9.51172 -6.24489,-1.22757 -12.56201,-1.09263 -18.86133,-1.07813 -2.56524,0.006 -4.44141,-0.45861 -4.29297,-3.39257 0.41032,-8.11218 -2.16961,-16.21259 0.0469,-24.33594 1.90808,-6.99573 0.74225,-13.92652 -1.14648,-20.69141 -1.65308,-5.92102 -3.74225,-11.7248 -5.76953,-17.53515 -6.92182,-19.83807 -20.68573,-33.58072 -39.17578,-42.65625 -15.13009,-7.42635 -31.58902,-8.95999 -48.1836,-9.02539 -29.16442,-0.11495 -58.3295,-0.07 -87.49414,-0.15235 -0.74884,-0.002 -1.52935,0.022 -2.32031,-0.0137 -0.42236,-0.0111 -0.84454,-0.0255 -1.26563,-0.0566 -0.33896,-0.0207 -0.67796,-0.036 -1.01757,-0.043 -0.26438,-0.01 -0.52829,-0.0236 -0.79297,-0.0176 h -0.55469 -0.58789 c -0.15849,0 -0.31612,2e-5 -0.47461,0 -0.13733,-1e-5 -0.27478,7e-5 -0.41211,0 -0.15748,-1e-4 -0.31518,-0.002 -0.47266,-0.002 -0.16003,0 -0.32045,-9.1e-4 -0.48046,-0.004 -0.21798,-0.004 -0.43462,-0.01 -0.65235,-0.0215 -0.1883,-0.0115 -0.3769,-0.0273 -0.56445,-0.0508 -0.57624,0.1006 -1.15158,0.20802 -1.73438,0.26172 -0.56015,0.0516 -0.98717,-0.0634 -1.27343,-0.26172 -0.37809,0.0449 -0.80386,2.9e-4 -1.31641,-0.21485 -2.4271,-1.01872 -1.18295,-3.39799 -0.69531,-5.29296 1.87542,-7.2883 5.71502,-13.24877 11.08203,-18.60352 9.0198,-8.99924 20.76397,-12.26633 32.10937,-16.50977 1.49289,-0.55838 2.58552,0.14609 3.69532,0.87891 2.99506,1.97774 6.18174,3.61313 9.37304,5.24219 0.1449,-0.0518 0.31188,-0.0796 0.5,-0.0762 0.24222,0.004 0.51755,0.0596 0.82032,0.18164 0.56609,0.22821 1.07725,0.5649 1.60351,0.86914 0.20508,0.10786 0.409,0.21519 0.6211,0.30859 0.13242,0.0583 0.25119,0.12179 0.35742,0.18945 0.0439,-0.003 0.0729,-0.0216 0.11914,-0.0215 0.16379,5.9e-4 0.34167,0.0195 0.5332,0.0606 0.5667,0.12119 1.1152,0.30976 1.66797,0.48047 0.48487,0.16083 0.97574,0.27751 1.48047,0.35351 0.55533,0.0708 1.11301,0.10158 1.66797,0.17578 0.50449,0.0613 0.99565,0.19689 1.49804,0.27149 0.47158,0.0646 0.94669,0.0847 1.42188,0.10156 0.5693,0.0174 1.13946,0.0185 1.70898,0.0215 0.53205,0.002 1.0638,0.003 1.59571,0.004 0.009,-0.0306 -3e-4,-0.0575 0.0176,-0.0898 0.38228,-0.0402 0.86797,-0.0912 1.2793,-0.13477 0.22077,-0.0595 0.42077,-0.0773 0.59766,-0.0625 1.0625,-0.11254 2.09129,-0.22236 3.2207,-0.33789 6.137,-0.62779 13.05558,-0.41898 17.85352,-3.92969 7.53873,-5.5162 14.07837,-3.77657 21.70898,-1.09961 16.26038,5.70442 30.11987,14.10609 38.32813,29.96289 0.67712,1.30815 1.5011,3.12534 2.65429,3.50782 7.78211,2.58125 14.35748,7.36433 21.42383,11.24414 0.20837,0.11441 0.62018,-0.14057 0.93555,-0.22657 1.82214,-4.57634 5.44848,-8.30996 3.5,-14.26171 -6.79822,-20.76512 -19.11756,-36.66589 -38.58594,-46.98633 -6.44278,-3.4155 -13.44416,-5.553961 -20.32031,-9.023441 1.05776,-1.99382 1.88034,-3.592628 2.74609,-5.167968 3.98386,-7.24897 6.58625,-14.935636 6.98828,-23.236329 C 400.75201,27.14988 371.28376,0.62428699 338.47656,0.01171875 Z M 335.82031,26.541016 c 1.33297,-0.05363 2.66547,-0.02824 3.99219,0.07617 8.84481,0.696103 17.39603,4.877751 23.59961,12.154296 9.94837,11.668976 10.63135,27.83758 1.74219,41.25 -7.60721,10.39053 -20.69437,17.734835 -37.14844,12.734375 -10.52902,-3.19981 -20.98435,-16.475815 -23.01758,-28.671875 -2.46231,-14.769703 5.65067,-29.139505 19.0293,-34.873046 3.80708,-1.631563 7.80384,-2.509027 11.80273,-2.669922 z m -211.74023,0.109375 c 12.92516,-0.463798 28.1629,8.540252 31.85742,21.955078 2.73855,10.969998 2.73925,20.956603 -3.32422,30.033203 -7.30582,10.93631 -17.83012,17.016347 -30.84961,15.529297 C 107.09343,92.492372 96.555189,80.73087 93.099609,66.65625 87.767729,44.939502 104.07648,27.368195 124.08008,26.650391 Z m 176.41015,98.091799 c -0.24143,0.028 -0.48224,0.0562 -0.72265,0.0898 -0.0629,0.0115 -0.12454,0.0297 -0.1875,0.041 0.33366,-0.0233 0.54035,-0.13236 0.91015,-0.13086 z m -0.91015,0.13086 c -0.29431,0.0205 -0.49051,0.10584 -0.76367,0.14062 0.007,0.007 0.0106,0.0124 0.0176,0.0195 0.25072,-0.0447 0.49576,-0.11511 0.7461,-0.16015 z m -7.54883,6.375 c -0.0309,0.0316 -0.063,0.0623 -0.0937,0.0937 0.0423,-0.0306 0.0903,-0.0593 0.13281,-0.0899 -0.0128,-0.002 -0.0265,-0.002 -0.0391,-0.004 z M 81.029297,181.49219 c 37.479423,-0.0518 74.955633,1.46586 112.431643,0.5 16.65747,-0.42929 33.30942,-0.54179 49.96289,-0.45899 44.46616,0.22098 88.93707,0.29696 133.39453,1.08203 16.84241,0.29742 31.82441,6.60856 43.82422,18.92579 1.44318,1.48136 3.20955,2.89111 3.22265,5.75 -6.85913,-2.02887 -12.93442,-5.60858 -19.78125,-7.01172 -4.26602,-0.87421 -8.49307,-1.49728 -12.85742,-1.48828 -26.98858,0.0573 -53.97613,0.0399 -80.96484,0.0469 -22.48621,0.12337 -43.9968,0.98957 -65.44727,0.66992 -60.46939,-0.90113 -120.93991,0.3978 -181.400388,-0.75 -3.453716,-0.0656 -7.066741,-0.13864 -9.810546,-2.51367 -0.208665,-0.003 -0.441201,-0.0394 -0.697266,-0.12109 -0.455717,-0.14539 -0.916672,-0.27898 -1.353516,-0.47657 -0.498227,-0.19952 -0.982654,-0.43165 -1.449218,-0.69726 -0.424873,-0.22404 -0.851487,-0.44435 -1.292969,-0.63477 -0.243547,-0.10504 -0.440563,-0.2279 -0.595703,-0.35937 -1.813441,1.01806 -3.402794,1.20221 -4.738282,-0.88867 0.926941,-2.70707 3.484234,-3.43447 5.652344,-4.44141 10.10213,-4.69175 20.704381,-7.11731 31.900391,-7.13281 z M 467.03711,300.39844 c 4.91046,-0.16461 6.51272,1.62649 6.41992,6.31054 -0.44171,22.29913 -1.50805,44.59101 -0.92187,66.9043 0.15753,13.68591 1.25561,12.14129 -11.13282,12.1836 -19.4906,0.0665 -38.99963,0.49512 -58.46875,-0.16602 -23.15008,-0.7861 -46.30124,-0.33576 -69.4375,-0.92188 -12.32364,-0.3122 -22.41677,-5.6686 -29.12109,-16.51171 -8.9693,-14.50635 -11.29343,-29.6858 -4.64062,-45.73243 6.06029,-14.61743 17.91808,-21.56133 32.92382,-21.82812 28.96771,-0.51498 57.94285,1.26419 86.92969,0.69922 15.81702,-0.30829 31.64001,-0.4075 47.44922,-0.9375 z"
   style="fill:#805adf;fill-opacity:1" />
<path
   fill="#000000"
   opacity="1"
   stroke="none"
   d="m 31.416817,279.79829 c 16.5535,-14.42642 34.94737,-23.147 57.00444,-24.15116 35.923003,-1.63543 63.462283,13.19721 84.349613,41.51618 10.09558,13.6875 14.22409,29.78586 15.24646,46.38748 2.96521,48.15009 -21.55975,84.26688 -64.16271,99.39429 -16.49615,5.85742 -33.591763,5.58441 -50.780393,2.32208 -20.59361,-3.90857 -36.63698,-15.03085 -49.77893,-30.65817 C 9.9941073,398.79228 2.1153973,380.55228 0.3693772,359.75391 -2.2840227,328.14689 9.4905873,302.20982 31.416817,279.79829 m 52.63103,141.56485 c 8.01149,1.17285 15.975893,0.53403 23.823373,-1.09577 37.8763,-7.86627 62.29998,-47.87091 52.90923,-86.49206 -8.71664,-35.84876 -40.83931,-57.79398 -77.330923,-52.14508 -19.00905,2.94256 -34.52403,12.62555 -44.60554,29.12167 -11.27851,18.45471 -14.69672,38.56937 -9.69322,59.98731 5.58139,23.89166 30.36827,47.26675 54.89708,50.62393 z"
   id="path5"
   style="fill:#805ad5;fill-opacity:1" />
<path
   id="path6"
   d="m 149.24805,435.7207 c -0.0685,0.0401 -0.1366,0.081 -0.20508,0.1211 0.0849,-0.0253 0.1691,-0.0526 0.25391,-0.0781 -0.0164,-0.0143 -0.033,-0.0281 -0.0488,-0.043 z m 22.26172,23.02344 c -0.0338,0.007 -0.0677,0.0142 -0.10157,0.0215 0.0338,-0.006 0.0678,-0.0101 0.10157,-0.0156 2.1e-4,-0.002 -2.2e-4,-0.004 0,-0.006 z" />

<path
   id="path8"
   d="m 53.478516,142.55664 c -0.0022,0.003 -0.0037,0.007 -0.0059,0.01 0.0024,-0.003 0.0055,-0.005 0.0078,-0.008 -5.76e-4,-7.2e-4 -0.0014,-0.001 -0.002,-0.002 z" />

<path
   fill="#000000"
   opacity="1"
   stroke="none"
   d="m 334.98031,367.2609 c -10.41254,-6.854 -16.88177,-15.58673 -15.74323,-28.31158 0.96479,-10.78272 9.62903,-20.39127 20.78904,-23.52966 9.81735,-2.76087 22.25879,1.50412 28.60598,9.80618 8.09409,10.58697 8.7721,23.34741 1.7443,32.82822 -7.4881,10.10174 -22.88385,14.2232 -35.39609,9.20684 m 19.78015,-23.94262 c 0.24301,-3.94126 -0.60302,-7.29596 -4.8703,-8.67981 -3.96197,-1.28479 -8.31698,0.53872 -9.59598,3.95126 -1.32882,3.54547 0.88034,9.14331 4.22327,10.70139 3.73279,1.73983 7.88031,-0.37345 10.24301,-5.97284 z"
   id="path10"
   style="fill:#805ad5;fill-opacity:1" />
<path
   fill="#000000"
   opacity="1"
   stroke="none"
   d="m 70.070197,373.81522 c 10.29275,-0.014 20.12584,0.13971 29.947073,-0.13336 2.79945,-0.0778 7.29635,0.85443 7.2817,-3.8493 -0.0135,-4.34128 -3.44972,-6.11917 -7.571683,-6.34009 -6.13687,-0.32889 -12.30693,0.42194 -18.4182,-0.94333 -10.3921,-2.32165 -20.2335,-14.35745 -21.66923,-26.77176 -1.24546,-10.76916 4.06478,-21.99704 13.7658,-25.33847 6.4849,-2.23367 10.83988,-3.92477 10.85636,-12.00363 0.009,-4.5289 6.24617,-7.21628 11.41835,-6.45929 6.682633,0.97806 10.438873,3.88696 10.219423,9.47507 -0.22192,5.65127 2.08983,6.76181 7.00787,6.42902 7.34874,-0.49726 12.79378,2.85067 16.41326,9.24841 3.52726,6.23477 0.0864,12.87088 -7.05948,13.31122 -7.67516,0.47287 -15.3078,-0.10367 -22.863663,-1.53659 -3.13982,-0.59543 -6.29282,-0.68244 -9.45516,-0.4383 -2.82667,0.21826 -4.69966,1.63086 -4.98883,4.60996 -0.29581,3.04736 0.81911,5.47335 4.00468,5.91555 5.74961,0.79816 11.541053,1.56962 17.332663,1.73505 13.42377,0.38336 21.21741,8.38394 25.57622,19.73386 4.18275,10.89145 2.07294,21.22464 -6.32179,29.96011 -4.1455,4.31375 -9.32956,5.65506 -14.89388,5.94901 -3.05321,0.16128 -4.44392,0.9981 -4.57098,4.33102 -0.32279,8.46613 -7.911433,13.77682 -16.112373,11.46066 -4.97227,-1.40429 -6.90333,-5.16821 -6.46509,-9.94555 0.44316,-4.83081 -1.60778,-6.23179 -6.03697,-5.76133 -2.30411,0.24476 -4.66786,0.13157 -6.98964,-0.0327 -6.447,-0.45618 -11.04676,-5.93976 -11.08468,-13.07416 -0.0331,-6.23031 2.56393,-8.65225 10.67825,-9.53107 z"
   id="path11"
   style="fill:#805ad5;fill-opacity:1" />

</svg>
